<mxfile host="app.diagrams.net" modified="2021-11-13T13:15:14.043Z" agent="5.0 (Windows)" etag="w73L4Acu5Q0C6HazyB5m" version="15.7.3" type="github">
  <diagram id="DhpbBV_fAAq80LxnOBcV" name="Page-1">
    <mxGraphModel dx="1021" dy="1618" grid="1" gridSize="10" guides="1" tooltips="1" connect="1" arrows="1" fold="1" page="1" pageScale="1" pageWidth="850" pageHeight="1100" math="0" shadow="0">
      <root>
        <mxCell id="0" />
        <mxCell id="1" parent="0" />
        <mxCell id="AmUxf_dr9PtnZJ9aw2W0-2" value="RVIZ" style="rounded=0;whiteSpace=wrap;html=1;" vertex="1" parent="1">
          <mxGeometry x="40" y="40" width="120" height="60" as="geometry" />
        </mxCell>
        <mxCell id="AmUxf_dr9PtnZJ9aw2W0-3" value="XBox Controller" style="whiteSpace=wrap;html=1;" vertex="1" parent="1">
          <mxGeometry x="40" y="130" width="120" height="60" as="geometry" />
        </mxCell>
        <mxCell id="AmUxf_dr9PtnZJ9aw2W0-4" value="Terminal" style="whiteSpace=wrap;html=1;" vertex="1" parent="1">
          <mxGeometry x="40" y="220" width="120" height="60" as="geometry" />
        </mxCell>
        <mxCell id="AmUxf_dr9PtnZJ9aw2W0-8" value="" style="endArrow=none;html=1;rounded=0;exitX=1;exitY=0.5;exitDx=0;exitDy=0;" edge="1" parent="1" source="AmUxf_dr9PtnZJ9aw2W0-2">
          <mxGeometry width="50" height="50" relative="1" as="geometry">
            <mxPoint x="300" y="160" as="sourcePoint" />
            <mxPoint x="320" y="160" as="targetPoint" />
          </mxGeometry>
        </mxCell>
        <mxCell id="AmUxf_dr9PtnZJ9aw2W0-9" value="" style="endArrow=none;html=1;rounded=0;exitX=1;exitY=0.5;exitDx=0;exitDy=0;" edge="1" parent="1" source="AmUxf_dr9PtnZJ9aw2W0-3">
          <mxGeometry width="50" height="50" relative="1" as="geometry">
            <mxPoint x="300" y="160" as="sourcePoint" />
            <mxPoint x="320" y="160" as="targetPoint" />
          </mxGeometry>
        </mxCell>
        <mxCell id="AmUxf_dr9PtnZJ9aw2W0-10" value="" style="endArrow=none;html=1;rounded=0;exitX=1;exitY=0.5;exitDx=0;exitDy=0;" edge="1" parent="1" source="AmUxf_dr9PtnZJ9aw2W0-4">
          <mxGeometry width="50" height="50" relative="1" as="geometry">
            <mxPoint x="300" y="160" as="sourcePoint" />
            <mxPoint x="320" y="160" as="targetPoint" />
          </mxGeometry>
        </mxCell>
        <mxCell id="AmUxf_dr9PtnZJ9aw2W0-12" value="/odometry/filtered_topic" style="endArrow=classic;html=1;rounded=0;" edge="1" parent="1">
          <mxGeometry x="-0.1667" y="9" width="50" height="50" relative="1" as="geometry">
            <mxPoint x="330" y="159.41" as="sourcePoint" />
            <mxPoint x="450" y="159.41" as="targetPoint" />
            <mxPoint x="1" as="offset" />
          </mxGeometry>
        </mxCell>
        <mxCell id="AmUxf_dr9PtnZJ9aw2W0-13" value="Goal [x,y,thetha]" style="whiteSpace=wrap;html=1;aspect=fixed;" vertex="1" parent="1">
          <mxGeometry x="450" y="130" width="60" height="60" as="geometry" />
        </mxCell>
        <mxCell id="AmUxf_dr9PtnZJ9aw2W0-14" value="SSH" style="endArrow=classic;html=1;rounded=0;exitX=1;exitY=0.5;exitDx=0;exitDy=0;" edge="1" parent="1" source="AmUxf_dr9PtnZJ9aw2W0-13">
          <mxGeometry y="10" width="50" height="50" relative="1" as="geometry">
            <mxPoint x="570" y="160" as="sourcePoint" />
            <mxPoint x="630" y="160" as="targetPoint" />
            <mxPoint as="offset" />
          </mxGeometry>
        </mxCell>
        <mxCell id="AmUxf_dr9PtnZJ9aw2W0-15" value="Controller" style="rounded=0;whiteSpace=wrap;html=1;" vertex="1" parent="1">
          <mxGeometry x="630" y="130" width="120" height="60" as="geometry" />
        </mxCell>
        <mxCell id="AmUxf_dr9PtnZJ9aw2W0-16" value="/jackal_velocity_controller/cmd_val" style="endArrow=classic;html=1;rounded=0;exitX=1;exitY=0.5;exitDx=0;exitDy=0;" edge="1" parent="1" source="AmUxf_dr9PtnZJ9aw2W0-15" target="AmUxf_dr9PtnZJ9aw2W0-17">
          <mxGeometry x="-0.0909" y="10" width="50" height="50" relative="1" as="geometry">
            <mxPoint x="650" y="270" as="sourcePoint" />
            <mxPoint x="900" y="160" as="targetPoint" />
            <Array as="points" />
            <mxPoint x="-1" as="offset" />
          </mxGeometry>
        </mxCell>
        <mxCell id="AmUxf_dr9PtnZJ9aw2W0-17" value="Motors" style="ellipse;whiteSpace=wrap;html=1;aspect=fixed;" vertex="1" parent="1">
          <mxGeometry x="950" y="120" width="80" height="80" as="geometry" />
        </mxCell>
        <mxCell id="AmUxf_dr9PtnZJ9aw2W0-20" value="TODO: CUSTOM FLAP" style="endArrow=classic;html=1;rounded=0;entryX=0;entryY=0.5;entryDx=0;entryDy=0;" edge="1" parent="1" target="AmUxf_dr9PtnZJ9aw2W0-21">
          <mxGeometry x="0.3333" y="10" width="50" height="50" relative="1" as="geometry">
            <mxPoint x="780" y="160" as="sourcePoint" />
            <mxPoint x="960" y="280" as="targetPoint" />
            <Array as="points">
              <mxPoint x="780" y="280" />
            </Array>
            <mxPoint as="offset" />
          </mxGeometry>
        </mxCell>
        <mxCell id="AmUxf_dr9PtnZJ9aw2W0-21" value="Pump" style="ellipse;whiteSpace=wrap;html=1;aspect=fixed;" vertex="1" parent="1">
          <mxGeometry x="950" y="240" width="80" height="80" as="geometry" />
        </mxCell>
        <mxCell id="AmUxf_dr9PtnZJ9aw2W0-22" value="State Estimation" style="whiteSpace=wrap;html=1;" vertex="1" parent="1">
          <mxGeometry x="630" y="10" width="120" height="60" as="geometry" />
        </mxCell>
        <mxCell id="AmUxf_dr9PtnZJ9aw2W0-23" value="" style="endArrow=classic;html=1;rounded=0;entryX=1;entryY=0.5;entryDx=0;entryDy=0;" edge="1" parent="1" target="AmUxf_dr9PtnZJ9aw2W0-22">
          <mxGeometry width="50" height="50" relative="1" as="geometry">
            <mxPoint x="930" y="160" as="sourcePoint" />
            <mxPoint x="720" y="130" as="targetPoint" />
            <Array as="points">
              <mxPoint x="930" y="40" />
            </Array>
          </mxGeometry>
        </mxCell>
        <mxCell id="AmUxf_dr9PtnZJ9aw2W0-24" value="" style="endArrow=classic;html=1;rounded=0;exitX=0;exitY=0.5;exitDx=0;exitDy=0;entryX=0;entryY=0.25;entryDx=0;entryDy=0;" edge="1" parent="1" source="AmUxf_dr9PtnZJ9aw2W0-22" target="AmUxf_dr9PtnZJ9aw2W0-15">
          <mxGeometry width="50" height="50" relative="1" as="geometry">
            <mxPoint x="670" y="140" as="sourcePoint" />
            <mxPoint x="720" y="90" as="targetPoint" />
            <Array as="points">
              <mxPoint x="590" y="40" />
              <mxPoint x="590" y="145" />
            </Array>
          </mxGeometry>
        </mxCell>
        <mxCell id="AmUxf_dr9PtnZJ9aw2W0-26" value="" style="endArrow=classic;html=1;rounded=0;entryX=0.5;entryY=0;entryDx=0;entryDy=0;exitX=0.5;exitY=1;exitDx=0;exitDy=0;" edge="1" parent="1" source="AmUxf_dr9PtnZJ9aw2W0-28" target="AmUxf_dr9PtnZJ9aw2W0-22">
          <mxGeometry width="50" height="50" relative="1" as="geometry">
            <mxPoint x="690" y="-40" as="sourcePoint" />
            <mxPoint x="720" y="-50" as="targetPoint" />
          </mxGeometry>
        </mxCell>
        <mxCell id="AmUxf_dr9PtnZJ9aw2W0-28" value="&lt;div&gt;GPS&lt;/div&gt;" style="rounded=0;whiteSpace=wrap;html=1;" vertex="1" parent="1">
          <mxGeometry x="630" y="-110" width="120" height="60" as="geometry" />
        </mxCell>
      </root>
    </mxGraphModel>
  </diagram>
</mxfile>
